<?xml version="1.0" encoding="UTF-8" standalone="no"?>
<!-- Generator: Adobe Illustrator 19.1.1, SVG Export Plug-In . SVG Version: 6.00 Build 0)  -->

<svg
   xmlns:dc="http://purl.org/dc/elements/1.1/"
   xmlns:cc="http://creativecommons.org/ns#"
   xmlns:rdf="http://www.w3.org/1999/02/22-rdf-syntax-ns#"
   xmlns:svg="http://www.w3.org/2000/svg"
   xmlns="http://www.w3.org/2000/svg"
   xmlns:sodipodi="http://sodipodi.sourceforge.net/DTD/sodipodi-0.dtd"
   xmlns:inkscape="http://www.inkscape.org/namespaces/inkscape"
   width="25"
   height="25"
   version="1.1"
   id="Layer_1"
   x="0px"
   y="0px"
   viewBox="0 0 48 48"
   style="enable-background:new 0 0 48 48;"
   xml:space="preserve"
   inkscape:version="0.91 r13725"
   sodipodi:docname="new.svg"><metadata
     id="metadata19"><rdf:RDF><cc:Work
         rdf:about=""><dc:format>image/svg+xml</dc:format><dc:type
           rdf:resource="http://purl.org/dc/dcmitype/StillImage" /></cc:Work></rdf:RDF></metadata><defs
     id="defs17" /><sodipodi:namedview
     pagecolor="#ffffff"
     bordercolor="#666666"
     borderopacity="1"
     objecttolerance="10"
     gridtolerance="10"
     guidetolerance="10"
     inkscape:pageopacity="0"
     inkscape:pageshadow="2"
     inkscape:window-width="1920"
     inkscape:window-height="1017"
     id="namedview15"
     showgrid="false"
     inkscape:zoom="9.44"
     inkscape:cx="12.5"
     inkscape:cy="12.5"
     inkscape:window-x="0"
     inkscape:window-y="30"
     inkscape:window-maximized="1"
     inkscape:current-layer="Layer_1" /><circle
     style="fill:#ffffff"
     cx="20.5"
     cy="20.5"
     r="3.5"
     id="circle3" /><path
     style="fill:#ffffff"
     d="M44,9.75l-16.069,9.782C30.565,24.115,30.351,28.959,28,34l7,10L44,9.75z"
     id="path5" /><path
     style="fill:#ffffff"
     d="M13.083,21.558C13.034,21.211,13,20.86,13,20.5c0-4.142,3.358-7.5,7.5-7.5  c1.618,0,3.113,0.518,4.339,1.39l7.965-4.857C29.782,6.145,25.397,4,20.5,4C11.387,4,4,11.387,4,20.5  c0,2.089,0.404,4.079,1.112,5.918L13.083,21.558z"
     id="path7" /><path
     style="fill:#ffffff"
     d="M27.931,19.532C27.972,19.849,28,20.171,28,20.5c0,4.142-3.358,7.5-7.5,7.5  c-1.586,0-3.055-0.495-4.267-1.336l-7.98,4.866C11.273,34.881,15.634,37,20.5,37C29.613,37,37,29.613,37,20.5  c0-2.059-0.394-4.021-1.083-5.838L27.931,19.532z"
     id="path9" /><g
     id="g11"><path
       style="fill:#ffffff"
       d="M37.481,13.718l-1.561,1C36.607,16.533,37,18.493,37,20.549c0,6.165-3.387,11.531-8.396,14.363   l2.167,3.095C35.656,34.579,39,28.146,39,20.917C39,18.456,38.369,16.066,37.481,13.718z"
       id="path13" /></g></svg>